<svg width="256" height="256" viewBox="0 0 256 256" fill="none" xmlns="http://www.w3.org/2000/svg">
<rect width="256" height="256" rx="128" fill="#09090B"/>
<path d="M67.7045 166.739C63.6667 166.739 59.9489 165.68 56.5511 163.562C53.178 161.445 50.4697 158.232 48.4261 153.923C46.4072 149.615 45.3977 144.186 45.3977 137.636C45.3977 130.792 46.4564 125.227 48.5739 120.943C50.7159 116.659 53.4735 113.52 56.8466 111.526C60.2443 109.531 63.8144 108.534 67.5568 108.534C70.3636 108.534 72.8258 109.027 74.9432 110.011C77.0606 110.972 78.8333 112.264 80.2614 113.889C81.6894 115.49 82.7727 117.25 83.5114 119.17H83.8068V90.3636H104.193V166H83.9545V156.693H83.5114C82.7235 158.614 81.5909 160.337 80.1136 161.864C78.661 163.366 76.8883 164.56 74.7955 165.446C72.7273 166.308 70.3636 166.739 67.7045 166.739ZM75.2386 151.08C77.1098 151.08 78.7102 150.538 80.0398 149.455C81.3939 148.347 82.428 146.795 83.142 144.801C83.8807 142.782 84.25 140.394 84.25 137.636C84.25 134.83 83.8807 132.429 83.142 130.435C82.428 128.416 81.3939 126.877 80.0398 125.818C78.7102 124.735 77.1098 124.193 75.2386 124.193C73.3674 124.193 71.767 124.735 70.4375 125.818C69.1326 126.877 68.1231 128.416 67.4091 130.435C66.7197 132.429 66.375 134.83 66.375 137.636C66.375 140.443 66.7197 142.856 67.4091 144.875C68.1231 146.869 69.1326 148.408 70.4375 149.491C71.767 150.55 73.3674 151.08 75.2386 151.08ZM151.281 86.8182L126.906 177.375H109.622L133.997 86.8182H151.281ZM208.913 127.739H190.152C190.054 126.581 189.647 125.584 188.933 124.747C188.219 123.91 187.296 123.27 186.163 122.827C185.055 122.359 183.824 122.125 182.47 122.125C180.722 122.125 179.22 122.445 177.964 123.085C176.709 123.725 176.093 124.636 176.118 125.818C176.093 126.655 176.45 127.431 177.189 128.145C177.952 128.859 179.417 129.413 181.584 129.807L193.107 131.875C198.917 132.934 203.238 134.719 206.07 137.23C208.926 139.717 210.366 143.053 210.391 147.239C210.366 151.277 209.16 154.785 206.771 157.764C204.408 160.719 201.17 163.009 197.058 164.634C192.971 166.234 188.305 167.034 183.061 167.034C174.394 167.034 167.611 165.261 162.712 161.716C157.837 158.17 155.116 153.492 154.55 147.682H174.788C175.059 149.479 175.946 150.87 177.447 151.855C178.974 152.815 180.894 153.295 183.209 153.295C185.08 153.295 186.619 152.975 187.825 152.335C189.056 151.695 189.684 150.784 189.709 149.602C189.684 148.519 189.143 147.657 188.084 147.017C187.05 146.377 185.425 145.86 183.209 145.466L173.163 143.693C167.377 142.684 163.044 140.763 160.163 137.932C157.283 135.1 155.855 131.456 155.879 127C155.855 123.061 156.889 119.724 158.982 116.991C161.099 114.234 164.115 112.141 168.03 110.713C171.969 109.26 176.635 108.534 182.027 108.534C190.226 108.534 196.689 110.233 201.416 113.631C206.168 117.028 208.667 121.731 208.913 127.739Z" fill="white"/>
</svg>
